<svg id="Layer_1" height="512" viewBox="0 0 48 48" width="512" xmlns="http://www.w3.org/2000/svg" xmlns:xlink="http://www.w3.org/1999/xlink" data-name="Layer 1"><linearGradient id="linear-gradient" gradientUnits="userSpaceOnUse" x1="11.694" x2="32.904" y1="3.002" y2="14.009"><stop offset="0" stop-color="#3e4154"/><stop offset="1" stop-color="#1b2129"/></linearGradient><linearGradient id="linear-gradient-2" gradientUnits="userSpaceOnUse" x1="24" x2="24" y1="27.548" y2="48.275"><stop offset="0" stop-color="#4793eb"/><stop offset="1" stop-color="#2367ec"/></linearGradient><linearGradient id="linear-gradient-3" gradientUnits="userSpaceOnUse" x1="24" x2="24" y1="34.618" y2="47.709"><stop offset="0" stop-color="#2b50d2"/><stop offset="1" stop-color="#182ea5"/></linearGradient><linearGradient id="linear-gradient-4" gradientUnits="userSpaceOnUse" x1="13.043" x2="17.801" y1="37.993" y2="39.943"><stop offset="0" stop-color="#fff"/><stop offset="1" stop-color="#dadfe0"/></linearGradient><linearGradient id="linear-gradient-5" gradientUnits="userSpaceOnUse" x1="24" x2="24" y1="27.166" y2="34.66"><stop offset="0" stop-color="#6fc6fc"/><stop offset="1" stop-color="#50a7f6"/></linearGradient><linearGradient id="linear-gradient-6" gradientUnits="userSpaceOnUse" x1="19.655" x2="28.827" y1="26.465" y2="30.936"><stop offset="0" stop-color="#f1d2bd"/><stop offset="1" stop-color="#feb592"/></linearGradient><linearGradient id="linear-gradient-7" gradientUnits="userSpaceOnUse" x1="31.5" x2="31.5" y1="19.255" y2="23.77"><stop offset="0" stop-color="#c6cbcc"/><stop offset="1" stop-color="#9fa5a6"/></linearGradient><linearGradient id="linear-gradient-8" x1="34" x2="34" xlink:href="#linear-gradient-2" y1="12.261" y2="20.068"/><linearGradient id="linear-gradient-9" x1="14" x2="14" xlink:href="#linear-gradient-2" y1="12.261" y2="20.068"/><linearGradient id="linear-gradient-10" gradientUnits="userSpaceOnUse" x1="24" x2="24" y1="9.624" y2="29.098"><stop offset="0" stop-color="#f1d2bd"/><stop offset=".314" stop-color="#f2cfb9"/><stop offset=".608" stop-color="#f5c7ad"/><stop offset=".894" stop-color="#fbbb9b"/><stop offset="1" stop-color="#feb592"/></linearGradient><linearGradient id="linear-gradient-11" x1="30" x2="30" xlink:href="#linear-gradient-7" y2="23.77"/><linearGradient id="linear-gradient-12" x1="26" x2="26" xlink:href="#linear-gradient-2" y1="20.898" y2="24.569"/><path d="m12.787 12.642c-2.299-5.057.861-8.872 4.035-10.136v.008c.039-.49.103-.931.17-1.302.129-.705.748-1.212 1.466-1.212h9.407c5.853 0 9.694 6.826 7.52 12.802l-1.486 4.087h-19.181l-1.93-4.246z" fill="url(#linear-gradient)"/><path d="m38 48h-28c-1.488 0-2.889-.658-3.842-1.806-.955-1.149-1.345-2.65-1.071-4.118l1.421-7.571c.491-2.648 2.422-4.741 5.037-5.46l6.933-1.889c3.611-.985 7.432-.985 11.045 0l6.931 1.889s.002 0 .002 0c2.615.719 4.546 2.812 5.038 5.462l1.419 7.568c.274 1.468-.115 2.969-1.07 4.119-.953 1.148-2.354 1.806-3.842 1.806z" fill="url(#linear-gradient-2)"/><path d="m23 32h2v16h-2z" fill="url(#linear-gradient-3)" opacity=".5"/><path d="m17 40h-3c-.553 0-1-.448-1-1s.447-1 1-1h3c.553 0 1 .448 1 1s-.447 1-1 1z" fill="url(#linear-gradient-4)"/><path d="m22 26h4c3.866 0 7 3.134 7 7 0 1.105-.895 2-2 2h-14c-1.105 0-2-.895-2-2 0-3.866 3.134-7 7-7z" fill="url(#linear-gradient-5)"/><path d="m19 24.04v5.96c0 2.761 2.239 5 5 5 2.761 0 5-2.239 5-5v-5.96z" fill="url(#linear-gradient-6)"/><path d="m33.001 24h-5.001c-.553 0-1-.448-1-1s.447-1 1-1h5.001c.552 0 1-.449 1-1v-3c0-.552.447-1 1-1s1 .448 1 1v3c0 1.654-1.346 3-3 3z" fill="url(#linear-gradient-7)"/><path d="m34 20h-2c-.553 0-1-.448-1-1v-6c0-.552.447-1 1-1h2c1.654 0 3 1.346 3 3v2c0 1.654-1.346 3-3 3z" fill="url(#linear-gradient-8)"/><path d="m11 17v-2c0-1.654 1.346-3 3-3h2c.553 0 1 .448 1 1v6c0 .552-.447 1-1 1h-2c-1.654 0-3-1.346-3-3z" fill="url(#linear-gradient-9)"/><path d="m15 20v-7c0-2.209 1.791-4 4-4h10c2.209 0 4 1.791 4 4v7c0 1.921-.763 3.763-2.121 5.121l-1.757 1.757c-1.358 1.358-3.2 2.121-5.121 2.121-1.921 0-3.763-.763-5.121-2.121l-1.757-1.757c-1.358-1.358-2.121-3.2-2.121-5.121z" fill="url(#linear-gradient-10)"/><path d="m33.001 24h-5.001c-.553 0-1-.448-1-1s.447-1 1-1h5.001z" fill="url(#linear-gradient-11)"/><rect fill="url(#linear-gradient-12)" height="4" rx="2" width="6" x="23" y="21"/></svg>